<mxfile host="65bd71144e" pages="2">
    <diagram id="h95Jl6erNYX7G5nfjj_V" name="Semantisch">
        <mxGraphModel dx="1865" dy="602" grid="1" gridSize="10" guides="1" tooltips="1" connect="1" arrows="1" fold="1" page="1" pageScale="1" pageWidth="827" pageHeight="1169" math="0" shadow="0">
            <root>
                <mxCell id="q-GRn3o725BASop5pFcT-0"/>
                <mxCell id="q-GRn3o725BASop5pFcT-1" parent="q-GRn3o725BASop5pFcT-0"/>
                <mxCell id="4xxd7vPMo3CIr23WEnG8-26" value="Kundenprojekt" style="swimlane;fontStyle=0;childLayout=stackLayout;horizontal=1;startSize=30;horizontalStack=0;resizeParent=1;resizeParentMax=0;resizeLast=0;collapsible=1;marginBottom=0;" parent="q-GRn3o725BASop5pFcT-1" vertex="1">
                    <mxGeometry x="-280" y="125" width="160" height="130" as="geometry"/>
                </mxCell>
                <mxCell id="4xxd7vPMo3CIr23WEnG8-111" value="&lt;u&gt;kundenprojekt_id: uuid&lt;/u&gt;" style="text;html=1;align=center;verticalAlign=middle;resizable=0;points=[];autosize=1;strokeColor=none;fillColor=none;" parent="4xxd7vPMo3CIr23WEnG8-26" vertex="1">
                    <mxGeometry y="30" width="160" height="20" as="geometry"/>
                </mxCell>
                <mxCell id="GxX8tAuHDrJkJSrQksmP-6" value="public: bool" style="text;html=1;align=center;verticalAlign=middle;resizable=0;points=[];autosize=1;strokeColor=none;fillColor=none;" parent="4xxd7vPMo3CIr23WEnG8-26" vertex="1">
                    <mxGeometry y="50" width="160" height="20" as="geometry"/>
                </mxCell>
                <mxCell id="4xxd7vPMo3CIr23WEnG8-112" value="titel: varchar(255)" style="text;html=1;align=center;verticalAlign=middle;resizable=0;points=[];autosize=1;strokeColor=none;fillColor=none;" parent="4xxd7vPMo3CIr23WEnG8-26" vertex="1">
                    <mxGeometry y="70" width="160" height="20" as="geometry"/>
                </mxCell>
                <mxCell id="4xxd7vPMo3CIr23WEnG8-113" value="beschreibung: varchar(255)" style="text;html=1;align=center;verticalAlign=middle;resizable=0;points=[];autosize=1;strokeColor=none;fillColor=none;" parent="4xxd7vPMo3CIr23WEnG8-26" vertex="1">
                    <mxGeometry y="90" width="160" height="20" as="geometry"/>
                </mxCell>
                <mxCell id="fhdg9vXMdDf_37-y3LQb-7" value="skill: varchar(255)" style="text;html=1;align=center;verticalAlign=middle;resizable=0;points=[];autosize=1;strokeColor=none;fillColor=none;" parent="4xxd7vPMo3CIr23WEnG8-26" vertex="1">
                    <mxGeometry y="110" width="160" height="20" as="geometry"/>
                </mxCell>
                <mxCell id="4xxd7vPMo3CIr23WEnG8-69" style="edgeStyle=none;html=1;entryX=0.5;entryY=1;entryDx=0;entryDy=0;endArrow=none;endFill=0;" parent="q-GRn3o725BASop5pFcT-1" source="4xxd7vPMo3CIr23WEnG8-35" target="4xxd7vPMo3CIr23WEnG8-62" edge="1">
                    <mxGeometry relative="1" as="geometry"/>
                </mxCell>
                <mxCell id="4xxd7vPMo3CIr23WEnG8-35" value="Entwickler" style="swimlane;fontStyle=0;childLayout=stackLayout;horizontal=1;startSize=30;horizontalStack=0;resizeParent=1;resizeParentMax=0;resizeLast=0;collapsible=1;marginBottom=0;" parent="q-GRn3o725BASop5pFcT-1" vertex="1">
                    <mxGeometry x="200" y="352.5" width="140" height="90" as="geometry"/>
                </mxCell>
                <mxCell id="4xxd7vPMo3CIr23WEnG8-104" value="&lt;u&gt;entwickler_id: uuid&lt;/u&gt;" style="text;html=1;align=center;verticalAlign=middle;resizable=0;points=[];autosize=1;strokeColor=none;fillColor=none;" parent="4xxd7vPMo3CIr23WEnG8-35" vertex="1">
                    <mxGeometry y="30" width="140" height="20" as="geometry"/>
                </mxCell>
                <mxCell id="4xxd7vPMo3CIr23WEnG8-98" value="name: varchar(255)" style="text;html=1;align=center;verticalAlign=middle;resizable=0;points=[];autosize=1;strokeColor=none;fillColor=none;" parent="4xxd7vPMo3CIr23WEnG8-35" vertex="1">
                    <mxGeometry y="50" width="140" height="20" as="geometry"/>
                </mxCell>
                <mxCell id="4xxd7vPMo3CIr23WEnG8-99" value="vorname: varchar(255)" style="text;html=1;align=center;verticalAlign=middle;resizable=0;points=[];autosize=1;strokeColor=none;fillColor=none;" parent="4xxd7vPMo3CIr23WEnG8-35" vertex="1">
                    <mxGeometry y="70" width="140" height="20" as="geometry"/>
                </mxCell>
                <mxCell id="4xxd7vPMo3CIr23WEnG8-68" style="edgeStyle=none;html=1;entryX=0.5;entryY=1;entryDx=0;entryDy=0;endArrow=none;endFill=0;" parent="q-GRn3o725BASop5pFcT-1" source="4xxd7vPMo3CIr23WEnG8-38" target="4xxd7vPMo3CIr23WEnG8-63" edge="1">
                    <mxGeometry relative="1" as="geometry"/>
                </mxCell>
                <mxCell id="4xxd7vPMo3CIr23WEnG8-85" style="edgeStyle=none;html=1;endArrow=none;endFill=0;" parent="q-GRn3o725BASop5pFcT-1" source="4xxd7vPMo3CIr23WEnG8-38" target="4xxd7vPMo3CIr23WEnG8-84" edge="1">
                    <mxGeometry relative="1" as="geometry"/>
                </mxCell>
                <mxCell id="4xxd7vPMo3CIr23WEnG8-38" value="Manager" style="swimlane;fontStyle=0;childLayout=stackLayout;horizontal=1;startSize=30;horizontalStack=0;resizeParent=1;resizeParentMax=0;resizeLast=0;collapsible=1;marginBottom=0;" parent="q-GRn3o725BASop5pFcT-1" vertex="1">
                    <mxGeometry x="454" y="352.5" width="140" height="90" as="geometry"/>
                </mxCell>
                <mxCell id="4xxd7vPMo3CIr23WEnG8-105" value="&lt;u&gt;manager_id: uuid&lt;/u&gt;" style="text;html=1;align=center;verticalAlign=middle;resizable=0;points=[];autosize=1;strokeColor=none;fillColor=none;" parent="4xxd7vPMo3CIr23WEnG8-38" vertex="1">
                    <mxGeometry y="30" width="140" height="20" as="geometry"/>
                </mxCell>
                <mxCell id="4xxd7vPMo3CIr23WEnG8-100" value="name: varchar(255)" style="text;html=1;align=center;verticalAlign=middle;resizable=0;points=[];autosize=1;strokeColor=none;fillColor=none;" parent="4xxd7vPMo3CIr23WEnG8-38" vertex="1">
                    <mxGeometry y="50" width="140" height="20" as="geometry"/>
                </mxCell>
                <mxCell id="4xxd7vPMo3CIr23WEnG8-101" value="vorname: varchar(255)" style="text;html=1;align=center;verticalAlign=middle;resizable=0;points=[];autosize=1;strokeColor=none;fillColor=none;" parent="4xxd7vPMo3CIr23WEnG8-38" vertex="1">
                    <mxGeometry y="70" width="140" height="20" as="geometry"/>
                </mxCell>
                <mxCell id="4xxd7vPMo3CIr23WEnG8-65" style="edgeStyle=none;html=1;entryX=0.5;entryY=1;entryDx=0;entryDy=0;endArrow=none;endFill=0;" parent="q-GRn3o725BASop5pFcT-1" source="4xxd7vPMo3CIr23WEnG8-41" target="4xxd7vPMo3CIr23WEnG8-64" edge="1">
                    <mxGeometry relative="1" as="geometry"/>
                </mxCell>
                <mxCell id="4xxd7vPMo3CIr23WEnG8-41" value="Reviewer" style="swimlane;fontStyle=0;childLayout=stackLayout;horizontal=1;startSize=30;horizontalStack=0;resizeParent=1;resizeParentMax=0;resizeLast=0;collapsible=1;marginBottom=0;" parent="q-GRn3o725BASop5pFcT-1" vertex="1">
                    <mxGeometry x="660" y="352.5" width="140" height="90" as="geometry"/>
                </mxCell>
                <mxCell id="4xxd7vPMo3CIr23WEnG8-106" value="&lt;u&gt;reviewer_id: uuid&lt;/u&gt;" style="text;html=1;align=center;verticalAlign=middle;resizable=0;points=[];autosize=1;strokeColor=none;fillColor=none;" parent="4xxd7vPMo3CIr23WEnG8-41" vertex="1">
                    <mxGeometry y="30" width="140" height="20" as="geometry"/>
                </mxCell>
                <mxCell id="4xxd7vPMo3CIr23WEnG8-102" value="name: varchar(255)" style="text;html=1;align=center;verticalAlign=middle;resizable=0;points=[];autosize=1;strokeColor=none;fillColor=none;" parent="4xxd7vPMo3CIr23WEnG8-41" vertex="1">
                    <mxGeometry y="50" width="140" height="20" as="geometry"/>
                </mxCell>
                <mxCell id="4xxd7vPMo3CIr23WEnG8-103" value="vorname: varchar(255)" style="text;html=1;align=center;verticalAlign=middle;resizable=0;points=[];autosize=1;strokeColor=none;fillColor=none;" parent="4xxd7vPMo3CIr23WEnG8-41" vertex="1">
                    <mxGeometry y="70" width="140" height="20" as="geometry"/>
                </mxCell>
                <mxCell id="4xxd7vPMo3CIr23WEnG8-56" value="" style="edgeStyle=none;html=1;endArrow=none;endFill=0;" parent="q-GRn3o725BASop5pFcT-1" source="4xxd7vPMo3CIr23WEnG8-44" target="4xxd7vPMo3CIr23WEnG8-55" edge="1">
                    <mxGeometry relative="1" as="geometry"/>
                </mxCell>
                <mxCell id="4xxd7vPMo3CIr23WEnG8-73" value="" style="edgeStyle=none;html=1;endArrow=none;endFill=0;" parent="q-GRn3o725BASop5pFcT-1" source="4xxd7vPMo3CIr23WEnG8-44" target="4xxd7vPMo3CIr23WEnG8-72" edge="1">
                    <mxGeometry relative="1" as="geometry"/>
                </mxCell>
                <mxCell id="4xxd7vPMo3CIr23WEnG8-44" value="EntwicklerProfil" style="swimlane;fontStyle=0;childLayout=stackLayout;horizontal=1;startSize=30;horizontalStack=0;resizeParent=1;resizeParentMax=0;resizeLast=0;collapsible=1;marginBottom=0;" parent="q-GRn3o725BASop5pFcT-1" vertex="1">
                    <mxGeometry x="-275" y="380" width="145" height="110" as="geometry"/>
                </mxCell>
                <mxCell id="4xxd7vPMo3CIr23WEnG8-152" value="&lt;u&gt;entwickler_profil_id: uuid&lt;/u&gt;" style="text;html=1;align=center;verticalAlign=middle;resizable=0;points=[];autosize=1;strokeColor=none;fillColor=none;" parent="4xxd7vPMo3CIr23WEnG8-44" vertex="1">
                    <mxGeometry y="30" width="145" height="20" as="geometry"/>
                </mxCell>
                <mxCell id="4xxd7vPMo3CIr23WEnG8-118" value="image: blob" style="text;html=1;align=center;verticalAlign=middle;resizable=0;points=[];autosize=1;strokeColor=none;fillColor=none;" parent="4xxd7vPMo3CIr23WEnG8-44" vertex="1">
                    <mxGeometry y="50" width="145" height="20" as="geometry"/>
                </mxCell>
                <mxCell id="4xxd7vPMo3CIr23WEnG8-117" value="telefon: varchar(255)" style="text;html=1;align=center;verticalAlign=middle;resizable=0;points=[];autosize=1;strokeColor=none;fillColor=none;" parent="4xxd7vPMo3CIr23WEnG8-44" vertex="1">
                    <mxGeometry y="70" width="145" height="20" as="geometry"/>
                </mxCell>
                <mxCell id="fhdg9vXMdDf_37-y3LQb-6" value="skills: varchar(255)" style="text;html=1;align=center;verticalAlign=middle;resizable=0;points=[];autosize=1;strokeColor=none;fillColor=none;" parent="4xxd7vPMo3CIr23WEnG8-44" vertex="1">
                    <mxGeometry y="90" width="145" height="20" as="geometry"/>
                </mxCell>
                <mxCell id="4xxd7vPMo3CIr23WEnG8-57" style="edgeStyle=none;html=1;entryX=0;entryY=0.5;entryDx=0;entryDy=0;endArrow=none;endFill=0;exitX=1;exitY=0.5;exitDx=0;exitDy=0;" parent="q-GRn3o725BASop5pFcT-1" source="4xxd7vPMo3CIr23WEnG8-55" target="4xxd7vPMo3CIr23WEnG8-35" edge="1">
                    <mxGeometry relative="1" as="geometry">
                        <mxPoint x="128.37209302325573" y="387.73255813953483" as="sourcePoint"/>
                    </mxGeometry>
                </mxCell>
                <mxCell id="4xxd7vPMo3CIr23WEnG8-55" value="E_hat_Eprofil" style="rhombus;whiteSpace=wrap;html=1;fontStyle=0;startSize=30;" parent="q-GRn3o725BASop5pFcT-1" vertex="1">
                    <mxGeometry x="-70" y="367.5" width="100" height="45" as="geometry"/>
                </mxCell>
                <mxCell id="4xxd7vPMo3CIr23WEnG8-58" value="0,1" style="text;html=1;align=center;verticalAlign=middle;resizable=0;points=[];autosize=1;strokeColor=none;fillColor=none;" parent="q-GRn3o725BASop5pFcT-1" vertex="1">
                    <mxGeometry x="170" y="360" width="30" height="20" as="geometry"/>
                </mxCell>
                <mxCell id="4xxd7vPMo3CIr23WEnG8-59" value="1,1" style="text;html=1;align=center;verticalAlign=middle;resizable=0;points=[];autosize=1;strokeColor=none;fillColor=none;" parent="q-GRn3o725BASop5pFcT-1" vertex="1">
                    <mxGeometry x="-135" y="420" width="30" height="20" as="geometry"/>
                </mxCell>
                <mxCell id="4xxd7vPMo3CIr23WEnG8-70" style="edgeStyle=none;html=1;entryX=0.5;entryY=1;entryDx=0;entryDy=0;endArrow=none;endFill=0;" parent="q-GRn3o725BASop5pFcT-1" source="4xxd7vPMo3CIr23WEnG8-62" target="4xxd7vPMo3CIr23WEnG8-81" edge="1">
                    <mxGeometry relative="1" as="geometry">
                        <mxPoint x="530.0000000000002" y="152.5" as="targetPoint"/>
                    </mxGeometry>
                </mxCell>
                <mxCell id="4xxd7vPMo3CIr23WEnG8-62" value="E_hat_User" style="rhombus;whiteSpace=wrap;html=1;" parent="q-GRn3o725BASop5pFcT-1" vertex="1">
                    <mxGeometry x="330" y="222.5" width="80" height="50" as="geometry"/>
                </mxCell>
                <mxCell id="4xxd7vPMo3CIr23WEnG8-67" style="edgeStyle=none;html=1;endArrow=none;endFill=0;entryX=0.5;entryY=1;entryDx=0;entryDy=0;" parent="q-GRn3o725BASop5pFcT-1" source="4xxd7vPMo3CIr23WEnG8-63" target="4xxd7vPMo3CIr23WEnG8-81" edge="1">
                    <mxGeometry relative="1" as="geometry">
                        <mxPoint x="530" y="152.5" as="targetPoint"/>
                    </mxGeometry>
                </mxCell>
                <mxCell id="4xxd7vPMo3CIr23WEnG8-63" value="M_hat_User" style="rhombus;whiteSpace=wrap;html=1;" parent="q-GRn3o725BASop5pFcT-1" vertex="1">
                    <mxGeometry x="490" y="222.5" width="80" height="55" as="geometry"/>
                </mxCell>
                <mxCell id="4xxd7vPMo3CIr23WEnG8-66" style="edgeStyle=none;html=1;entryX=0.5;entryY=1;entryDx=0;entryDy=0;endArrow=none;endFill=0;" parent="q-GRn3o725BASop5pFcT-1" source="4xxd7vPMo3CIr23WEnG8-64" target="4xxd7vPMo3CIr23WEnG8-81" edge="1">
                    <mxGeometry relative="1" as="geometry">
                        <mxPoint x="530.0000000000002" y="152.5" as="targetPoint"/>
                    </mxGeometry>
                </mxCell>
                <mxCell id="4xxd7vPMo3CIr23WEnG8-64" value="R_hat_User" style="rhombus;whiteSpace=wrap;html=1;" parent="q-GRn3o725BASop5pFcT-1" vertex="1">
                    <mxGeometry x="700" y="222.5" width="80" height="50" as="geometry"/>
                </mxCell>
                <mxCell id="4xxd7vPMo3CIr23WEnG8-74" style="edgeStyle=none;html=1;entryX=0.5;entryY=1;entryDx=0;entryDy=0;endArrow=none;endFill=0;" parent="q-GRn3o725BASop5pFcT-1" source="4xxd7vPMo3CIr23WEnG8-72" target="4xxd7vPMo3CIr23WEnG8-26" edge="1">
                    <mxGeometry relative="1" as="geometry"/>
                </mxCell>
                <mxCell id="4xxd7vPMo3CIr23WEnG8-72" value="EProfil_ist_in_Kp" style="rhombus;whiteSpace=wrap;html=1;fontStyle=0;startSize=30;" parent="q-GRn3o725BASop5pFcT-1" vertex="1">
                    <mxGeometry x="-255" y="287.5" width="110" height="50" as="geometry"/>
                </mxCell>
                <mxCell id="4xxd7vPMo3CIr23WEnG8-75" value="0,N" style="text;html=1;align=center;verticalAlign=middle;resizable=0;points=[];autosize=1;strokeColor=none;fillColor=none;" parent="q-GRn3o725BASop5pFcT-1" vertex="1">
                    <mxGeometry x="-195" y="255" width="30" height="20" as="geometry"/>
                </mxCell>
                <mxCell id="4xxd7vPMo3CIr23WEnG8-76" value="0,1" style="text;html=1;align=center;verticalAlign=middle;resizable=0;points=[];autosize=1;strokeColor=none;fillColor=none;" parent="q-GRn3o725BASop5pFcT-1" vertex="1">
                    <mxGeometry x="-235" y="355" width="40" height="30" as="geometry"/>
                </mxCell>
                <mxCell id="4xxd7vPMo3CIr23WEnG8-81" value="User" style="swimlane;fontStyle=0;childLayout=stackLayout;horizontal=1;startSize=30;horizontalStack=0;resizeParent=1;resizeParentMax=0;resizeLast=0;collapsible=1;marginBottom=0;" parent="q-GRn3o725BASop5pFcT-1" vertex="1">
                    <mxGeometry x="470" y="92.5" width="140" height="110" as="geometry"/>
                </mxCell>
                <mxCell id="4xxd7vPMo3CIr23WEnG8-91" value="&lt;u&gt;user_id: uuid&lt;/u&gt;" style="text;html=1;align=center;verticalAlign=middle;resizable=0;points=[];autosize=1;strokeColor=none;fillColor=none;" parent="4xxd7vPMo3CIr23WEnG8-81" vertex="1">
                    <mxGeometry y="30" width="140" height="20" as="geometry"/>
                </mxCell>
                <mxCell id="4xxd7vPMo3CIr23WEnG8-92" value="email: varchar(255)" style="text;html=1;align=center;verticalAlign=middle;resizable=0;points=[];autosize=1;strokeColor=none;fillColor=none;" parent="4xxd7vPMo3CIr23WEnG8-81" vertex="1">
                    <mxGeometry y="50" width="140" height="20" as="geometry"/>
                </mxCell>
                <mxCell id="4xxd7vPMo3CIr23WEnG8-107" value="username: varchar(255)&lt;span style=&quot;color: rgba(0 , 0 , 0 , 0) ; font-family: monospace ; font-size: 0px&quot;&gt;3CmxGraphModel%3E%3Croot%3E%3CmxCell%20id%3D%220%22%2F%3E%3CmxCell%20id%3D%221%22%20parent%3D%220%22%2F%3E%3CmxCell%20id%3D%222%22%20value%3D%22%26lt%3Bu%26gt%3Buser_id%3A%20uuid%26lt%3B%2Fu%26gt%3B%22%20style%3D%22text%3Bhtml%3D1%3Balign%3Dcenter%3BverticalAlign%3Dmiddle%3Bresizable%3D0%3Bpoints%3D%5B%5D%3Bautosize%3D1%3BstrokeColor%3Dnone%3BfillColor%3Dnone%3B%22%20vertex%3D%221%22%20parent%3D%221%22%3E%3CmxGeometry%20x%3D%22360%22%20y%3D%22130%22%20width%3D%22140%22%20height%3D%2220%22%20as%3D%22geometry%22%2F%3E%3C%2FmxCell%3E%3C%2Froot%3E%3C%2FmxGraphModel%3E&lt;/span&gt;" style="text;html=1;align=center;verticalAlign=middle;resizable=0;points=[];autosize=1;strokeColor=none;fillColor=none;" parent="4xxd7vPMo3CIr23WEnG8-81" vertex="1">
                    <mxGeometry y="70" width="140" height="20" as="geometry"/>
                </mxCell>
                <mxCell id="4xxd7vPMo3CIr23WEnG8-95" value="passwort: varchar(255)" style="text;html=1;align=center;verticalAlign=middle;resizable=0;points=[];autosize=1;strokeColor=none;fillColor=none;" parent="4xxd7vPMo3CIr23WEnG8-81" vertex="1">
                    <mxGeometry y="90" width="140" height="20" as="geometry"/>
                </mxCell>
                <mxCell id="4xxd7vPMo3CIr23WEnG8-86" style="edgeStyle=none;html=1;endArrow=none;endFill=0;entryX=0;entryY=0.5;entryDx=0;entryDy=0;" parent="q-GRn3o725BASop5pFcT-1" source="4xxd7vPMo3CIr23WEnG8-84" target="4xxd7vPMo3CIr23WEnG8-26" edge="1">
                    <mxGeometry relative="1" as="geometry">
                        <mxPoint x="-330" y="140" as="targetPoint"/>
                        <Array as="points">
                            <mxPoint x="-340" y="540"/>
                            <mxPoint x="-340" y="190"/>
                        </Array>
                    </mxGeometry>
                </mxCell>
                <mxCell id="4xxd7vPMo3CIr23WEnG8-84" value="M_erstellt_Kp" style="rhombus;whiteSpace=wrap;html=1;fontStyle=0;startSize=30;" parent="q-GRn3o725BASop5pFcT-1" vertex="1">
                    <mxGeometry x="464" y="520" width="120" height="45" as="geometry"/>
                </mxCell>
                <mxCell id="4xxd7vPMo3CIr23WEnG8-87" value="0,N" style="text;html=1;align=center;verticalAlign=middle;resizable=0;points=[];autosize=1;strokeColor=none;fillColor=none;" parent="q-GRn3o725BASop5pFcT-1" vertex="1">
                    <mxGeometry x="524" y="442.5" width="30" height="20" as="geometry"/>
                </mxCell>
                <mxCell id="4xxd7vPMo3CIr23WEnG8-88" value="1,1" style="text;html=1;align=center;verticalAlign=middle;resizable=0;points=[];autosize=1;strokeColor=none;fillColor=none;" parent="q-GRn3o725BASop5pFcT-1" vertex="1">
                    <mxGeometry x="-310" y="162.5" width="30" height="20" as="geometry"/>
                </mxCell>
                <mxCell id="4xxd7vPMo3CIr23WEnG8-90" style="edgeStyle=none;html=1;entryX=1;entryY=0.5;entryDx=0;entryDy=0;endArrow=none;endFill=0;" parent="q-GRn3o725BASop5pFcT-1" source="4xxd7vPMo3CIr23WEnG8-89" target="4xxd7vPMo3CIr23WEnG8-41" edge="1">
                    <mxGeometry relative="1" as="geometry"/>
                </mxCell>
                <mxCell id="4xxd7vPMo3CIr23WEnG8-89" value="Zuweisung von EProfil zu Kp" style="shape=note;whiteSpace=wrap;html=1;backgroundOutline=1;darkOpacity=0.05;" parent="q-GRn3o725BASop5pFcT-1" vertex="1">
                    <mxGeometry x="820" y="277.5" width="80" height="100" as="geometry"/>
                </mxCell>
                <mxCell id="4xxd7vPMo3CIr23WEnG8-109" style="edgeStyle=none;html=1;entryX=0.995;entryY=0.48;entryDx=0;entryDy=0;entryPerimeter=0;endArrow=none;endFill=0;" parent="q-GRn3o725BASop5pFcT-1" source="4xxd7vPMo3CIr23WEnG8-108" target="4xxd7vPMo3CIr23WEnG8-95" edge="1">
                    <mxGeometry relative="1" as="geometry"/>
                </mxCell>
                <mxCell id="4xxd7vPMo3CIr23WEnG8-108" value="min. 8 chars" style="shape=note;whiteSpace=wrap;html=1;backgroundOutline=1;darkOpacity=0.05;size=13;" parent="q-GRn3o725BASop5pFcT-1" vertex="1">
                    <mxGeometry x="640" y="122.5" width="60" height="60" as="geometry"/>
                </mxCell>
                <mxCell id="4xxd7vPMo3CIr23WEnG8-135" value="Anfrage" style="swimlane;fontStyle=0;childLayout=stackLayout;horizontal=1;startSize=30;horizontalStack=0;resizeParent=1;resizeParentMax=0;resizeLast=0;collapsible=1;marginBottom=0;" parent="q-GRn3o725BASop5pFcT-1" vertex="1">
                    <mxGeometry x="315" y="575" width="140" height="70" as="geometry"/>
                </mxCell>
                <mxCell id="4xxd7vPMo3CIr23WEnG8-156" value="&lt;u&gt;anfrage_id: uuid&lt;/u&gt;" style="text;html=1;align=center;verticalAlign=middle;resizable=0;points=[];autosize=1;strokeColor=none;fillColor=none;" parent="4xxd7vPMo3CIr23WEnG8-135" vertex="1">
                    <mxGeometry y="30" width="140" height="20" as="geometry"/>
                </mxCell>
                <mxCell id="bpXLOezqcbEtl8hkOqeL-6" value="grund: varchar" style="text;html=1;align=center;verticalAlign=middle;resizable=0;points=[];autosize=1;strokeColor=none;fillColor=none;" parent="4xxd7vPMo3CIr23WEnG8-135" vertex="1">
                    <mxGeometry y="50" width="140" height="20" as="geometry"/>
                </mxCell>
                <mxCell id="4xxd7vPMo3CIr23WEnG8-137" style="edgeStyle=none;html=1;entryX=0.608;entryY=1.058;entryDx=0;entryDy=0;endArrow=none;endFill=0;entryPerimeter=0;" parent="q-GRn3o725BASop5pFcT-1" source="4xxd7vPMo3CIr23WEnG8-136" target="4xxd7vPMo3CIr23WEnG8-103" edge="1">
                    <mxGeometry relative="1" as="geometry"/>
                </mxCell>
                <mxCell id="4xxd7vPMo3CIr23WEnG8-138" style="edgeStyle=none;html=1;entryX=1.024;entryY=0.088;entryDx=0;entryDy=0;endArrow=none;endFill=0;entryPerimeter=0;exitX=0.5;exitY=1;exitDx=0;exitDy=0;" parent="q-GRn3o725BASop5pFcT-1" source="4xxd7vPMo3CIr23WEnG8-136" target="4xxd7vPMo3CIr23WEnG8-156" edge="1">
                    <mxGeometry relative="1" as="geometry">
                        <Array as="points">
                            <mxPoint x="610" y="607"/>
                        </Array>
                    </mxGeometry>
                </mxCell>
                <mxCell id="4xxd7vPMo3CIr23WEnG8-136" value="Ma_erstellt_A" style="rhombus;whiteSpace=wrap;html=1;fontStyle=0;startSize=30;" parent="q-GRn3o725BASop5pFcT-1" vertex="1">
                    <mxGeometry x="700" y="530" width="100" height="45" as="geometry"/>
                </mxCell>
                <mxCell id="4xxd7vPMo3CIr23WEnG8-139" value="0,N" style="text;html=1;align=center;verticalAlign=middle;resizable=0;points=[];autosize=1;strokeColor=none;fillColor=none;" parent="q-GRn3o725BASop5pFcT-1" vertex="1">
                    <mxGeometry x="700" y="442.5" width="30" height="20" as="geometry"/>
                </mxCell>
                <mxCell id="4xxd7vPMo3CIr23WEnG8-142" style="edgeStyle=none;html=1;entryX=0;entryY=0.5;entryDx=0;entryDy=0;endArrow=none;endFill=0;" parent="q-GRn3o725BASop5pFcT-1" source="4xxd7vPMo3CIr23WEnG8-140" target="4xxd7vPMo3CIr23WEnG8-135" edge="1">
                    <mxGeometry relative="1" as="geometry"/>
                </mxCell>
                <mxCell id="4xxd7vPMo3CIr23WEnG8-143" style="edgeStyle=none;html=1;endArrow=none;endFill=0;exitX=0;exitY=0.5;exitDx=0;exitDy=0;" parent="q-GRn3o725BASop5pFcT-1" source="4xxd7vPMo3CIr23WEnG8-140" target="4xxd7vPMo3CIr23WEnG8-44" edge="1">
                    <mxGeometry relative="1" as="geometry"/>
                </mxCell>
                <mxCell id="4xxd7vPMo3CIr23WEnG8-140" value="A_an_EntProfil" style="rhombus;whiteSpace=wrap;html=1;fontStyle=0;startSize=30;" parent="q-GRn3o725BASop5pFcT-1" vertex="1">
                    <mxGeometry x="80" y="587.5" width="100" height="45" as="geometry"/>
                </mxCell>
                <mxCell id="4xxd7vPMo3CIr23WEnG8-145" value="0,N" style="text;html=1;align=center;verticalAlign=middle;resizable=0;points=[];autosize=1;strokeColor=none;fillColor=none;" parent="q-GRn3o725BASop5pFcT-1" vertex="1">
                    <mxGeometry x="-145" y="490" width="30" height="20" as="geometry"/>
                </mxCell>
                <mxCell id="4xxd7vPMo3CIr23WEnG8-146" value="1,1" style="text;html=1;align=center;verticalAlign=middle;resizable=0;points=[];autosize=1;strokeColor=none;fillColor=none;" parent="q-GRn3o725BASop5pFcT-1" vertex="1">
                    <mxGeometry x="285" y="620" width="30" height="20" as="geometry"/>
                </mxCell>
                <mxCell id="4xxd7vPMo3CIr23WEnG8-147" value="1,1" style="text;html=1;align=center;verticalAlign=middle;resizable=0;points=[];autosize=1;strokeColor=none;fillColor=none;" parent="q-GRn3o725BASop5pFcT-1" vertex="1">
                    <mxGeometry x="455" y="585" width="30" height="20" as="geometry"/>
                </mxCell>
                <mxCell id="0" value="0,1" style="text;html=1;align=center;verticalAlign=middle;resizable=0;points=[];autosize=1;strokeColor=none;fillColor=none;" parent="q-GRn3o725BASop5pFcT-1" vertex="1">
                    <mxGeometry x="535" y="210" width="30" height="20" as="geometry"/>
                </mxCell>
                <mxCell id="4" value="1,1" style="text;html=1;align=center;verticalAlign=middle;resizable=0;points=[];autosize=1;strokeColor=none;fillColor=none;" parent="q-GRn3o725BASop5pFcT-1" vertex="1">
                    <mxGeometry x="525" y="330" width="30" height="20" as="geometry"/>
                </mxCell>
                <mxCell id="5" value="1,1" style="text;html=1;align=center;verticalAlign=middle;resizable=0;points=[];autosize=1;strokeColor=none;fillColor=none;" parent="q-GRn3o725BASop5pFcT-1" vertex="1">
                    <mxGeometry x="745" y="330" width="30" height="20" as="geometry"/>
                </mxCell>
                <mxCell id="6" value="1,1" style="text;html=1;align=center;verticalAlign=middle;resizable=0;points=[];autosize=1;strokeColor=none;fillColor=none;" parent="q-GRn3o725BASop5pFcT-1" vertex="1">
                    <mxGeometry x="285" y="330" width="30" height="20" as="geometry"/>
                </mxCell>
                <mxCell id="bzvXjfnmh5lg7JU9Z_LF-6" value="&lt;div&gt;0,1&lt;/div&gt;" style="text;html=1;align=center;verticalAlign=middle;resizable=0;points=[];autosize=1;strokeColor=none;fillColor=none;" parent="q-GRn3o725BASop5pFcT-1" vertex="1">
                    <mxGeometry x="440" y="197.5" width="40" height="30" as="geometry"/>
                </mxCell>
                <mxCell id="bzvXjfnmh5lg7JU9Z_LF-7" value="&lt;div&gt;0,1&lt;/div&gt;" style="text;html=1;align=center;verticalAlign=middle;resizable=0;points=[];autosize=1;strokeColor=none;fillColor=none;" parent="q-GRn3o725BASop5pFcT-1" vertex="1">
                    <mxGeometry x="610" y="197.5" width="40" height="30" as="geometry"/>
                </mxCell>
            </root>
        </mxGraphModel>
    </diagram>
    <diagram id="EF6s0xJ8y6schOU8f0pU" name="Logisch">
        <mxGraphModel dx="1587" dy="766" grid="1" gridSize="10" guides="1" tooltips="1" connect="1" arrows="1" fold="1" page="1" pageScale="1" pageWidth="827" pageHeight="1169" math="0" shadow="0">
            <root>
                <mxCell id="0"/>
                <mxCell id="1" parent="0"/>
                <mxCell id="ZNzW28Jg4eOqkjXqQZsP-1" value="User" style="swimlane;fontStyle=0;childLayout=stackLayout;horizontal=1;startSize=30;horizontalStack=0;resizeParent=1;resizeParentMax=0;resizeLast=0;collapsible=1;marginBottom=0;" parent="1" vertex="1">
                    <mxGeometry x="470" y="92.5" width="173" height="110" as="geometry"/>
                </mxCell>
                <mxCell id="ZNzW28Jg4eOqkjXqQZsP-2" value="&lt;u&gt;id: uuid&lt;/u&gt;" style="text;html=1;align=center;verticalAlign=middle;resizable=0;points=[];autosize=1;strokeColor=none;fillColor=none;" parent="ZNzW28Jg4eOqkjXqQZsP-1" vertex="1">
                    <mxGeometry y="30" width="173" height="20" as="geometry"/>
                </mxCell>
                <mxCell id="ZNzW28Jg4eOqkjXqQZsP-3" value="email: varchar not null" style="text;html=1;align=center;verticalAlign=middle;resizable=0;points=[];autosize=1;strokeColor=none;fillColor=none;" parent="ZNzW28Jg4eOqkjXqQZsP-1" vertex="1">
                    <mxGeometry y="50" width="173" height="20" as="geometry"/>
                </mxCell>
                <mxCell id="69iihYabdfvsN68exh8L-21" value="username: varchar not null" style="text;html=1;align=center;verticalAlign=middle;resizable=0;points=[];autosize=1;strokeColor=none;fillColor=none;" parent="ZNzW28Jg4eOqkjXqQZsP-1" vertex="1">
                    <mxGeometry y="70" width="173" height="20" as="geometry"/>
                </mxCell>
                <mxCell id="ZNzW28Jg4eOqkjXqQZsP-5" value="password: varchar not null" style="text;html=1;align=center;verticalAlign=middle;resizable=0;points=[];autosize=1;strokeColor=none;fillColor=none;" parent="ZNzW28Jg4eOqkjXqQZsP-1" vertex="1">
                    <mxGeometry y="90" width="173" height="20" as="geometry"/>
                </mxCell>
                <mxCell id="ZNzW28Jg4eOqkjXqQZsP-6" value="Reviewer" style="swimlane;fontStyle=0;childLayout=stackLayout;horizontal=1;startSize=30;horizontalStack=0;resizeParent=1;resizeParentMax=0;resizeLast=0;collapsible=1;marginBottom=0;" parent="1" vertex="1">
                    <mxGeometry x="620" y="310" width="148" height="110" as="geometry"/>
                </mxCell>
                <mxCell id="69iihYabdfvsN68exh8L-10" value="&lt;u&gt;id: uuid&lt;/u&gt;" style="text;html=1;align=center;verticalAlign=middle;resizable=0;points=[];autosize=1;strokeColor=none;fillColor=none;" parent="ZNzW28Jg4eOqkjXqQZsP-6" vertex="1">
                    <mxGeometry y="30" width="148" height="20" as="geometry"/>
                </mxCell>
                <mxCell id="ZNzW28Jg4eOqkjXqQZsP-7" value="&lt;u&gt;user_id: uuid&lt;/u&gt;" style="text;html=1;align=center;verticalAlign=middle;resizable=0;points=[];autosize=1;strokeColor=none;fillColor=none;" parent="ZNzW28Jg4eOqkjXqQZsP-6" vertex="1">
                    <mxGeometry y="50" width="148" height="20" as="geometry"/>
                </mxCell>
                <mxCell id="69iihYabdfvsN68exh8L-9" value="name: varchar not null" style="text;html=1;align=center;verticalAlign=middle;resizable=0;points=[];autosize=1;strokeColor=none;fillColor=none;" parent="ZNzW28Jg4eOqkjXqQZsP-6" vertex="1">
                    <mxGeometry y="70" width="148" height="20" as="geometry"/>
                </mxCell>
                <mxCell id="69iihYabdfvsN68exh8L-8" value="firstname: varchar not null" style="text;html=1;align=center;verticalAlign=middle;resizable=0;points=[];autosize=1;strokeColor=none;fillColor=none;" parent="ZNzW28Jg4eOqkjXqQZsP-6" vertex="1">
                    <mxGeometry y="90" width="148" height="20" as="geometry"/>
                </mxCell>
                <mxCell id="ZNzW28Jg4eOqkjXqQZsP-11" value="Manager" style="swimlane;fontStyle=0;childLayout=stackLayout;horizontal=1;startSize=30;horizontalStack=0;resizeParent=1;resizeParentMax=0;resizeLast=0;collapsible=1;marginBottom=0;" parent="1" vertex="1">
                    <mxGeometry x="380" y="310" width="148" height="110" as="geometry"/>
                </mxCell>
                <mxCell id="ZNzW28Jg4eOqkjXqQZsP-12" value="&lt;u&gt;id: uuid&lt;/u&gt;" style="text;html=1;align=center;verticalAlign=middle;resizable=0;points=[];autosize=1;strokeColor=none;fillColor=none;" parent="ZNzW28Jg4eOqkjXqQZsP-11" vertex="1">
                    <mxGeometry y="30" width="148" height="20" as="geometry"/>
                </mxCell>
                <mxCell id="69iihYabdfvsN68exh8L-3" value="&lt;u&gt;user_id: uuid&lt;/u&gt;" style="text;html=1;align=center;verticalAlign=middle;resizable=0;points=[];autosize=1;strokeColor=none;fillColor=none;" parent="ZNzW28Jg4eOqkjXqQZsP-11" vertex="1">
                    <mxGeometry y="50" width="148" height="20" as="geometry"/>
                </mxCell>
                <mxCell id="69iihYabdfvsN68exh8L-4" value="name: varchar not null" style="text;html=1;align=center;verticalAlign=middle;resizable=0;points=[];autosize=1;strokeColor=none;fillColor=none;" parent="ZNzW28Jg4eOqkjXqQZsP-11" vertex="1">
                    <mxGeometry y="70" width="148" height="20" as="geometry"/>
                </mxCell>
                <mxCell id="69iihYabdfvsN68exh8L-6" value="firstname: varchar not null" style="text;html=1;align=center;verticalAlign=middle;resizable=0;points=[];autosize=1;strokeColor=none;fillColor=none;" parent="ZNzW28Jg4eOqkjXqQZsP-11" vertex="1">
                    <mxGeometry y="90" width="148" height="20" as="geometry"/>
                </mxCell>
                <mxCell id="ZNzW28Jg4eOqkjXqQZsP-16" value="Entwickler" style="swimlane;fontStyle=0;childLayout=stackLayout;horizontal=1;startSize=30;horizontalStack=0;resizeParent=1;resizeParentMax=0;resizeLast=0;collapsible=1;marginBottom=0;" parent="1" vertex="1">
                    <mxGeometry x="140" y="310" width="173" height="110" as="geometry"/>
                </mxCell>
                <mxCell id="ZNzW28Jg4eOqkjXqQZsP-21" value="&lt;u&gt;id: uuid&lt;/u&gt;" style="text;html=1;align=center;verticalAlign=middle;resizable=0;points=[];autosize=1;strokeColor=none;fillColor=none;" parent="ZNzW28Jg4eOqkjXqQZsP-16" vertex="1">
                    <mxGeometry y="30" width="173" height="20" as="geometry"/>
                </mxCell>
                <mxCell id="ZNzW28Jg4eOqkjXqQZsP-17" value="&lt;u&gt;user_id: uuid&lt;/u&gt;" style="text;html=1;align=center;verticalAlign=middle;resizable=0;points=[];autosize=1;strokeColor=none;fillColor=none;" parent="ZNzW28Jg4eOqkjXqQZsP-16" vertex="1">
                    <mxGeometry y="50" width="173" height="20" as="geometry"/>
                </mxCell>
                <mxCell id="69iihYabdfvsN68exh8L-2" value="name: varchar not null" style="text;html=1;align=center;verticalAlign=middle;resizable=0;points=[];autosize=1;strokeColor=none;fillColor=none;" parent="ZNzW28Jg4eOqkjXqQZsP-16" vertex="1">
                    <mxGeometry y="70" width="173" height="20" as="geometry"/>
                </mxCell>
                <mxCell id="69iihYabdfvsN68exh8L-7" value="firstname: varchar not null" style="text;html=1;align=center;verticalAlign=middle;resizable=0;points=[];autosize=1;strokeColor=none;fillColor=none;" parent="ZNzW28Jg4eOqkjXqQZsP-16" vertex="1">
                    <mxGeometry y="90" width="173" height="20" as="geometry"/>
                </mxCell>
                <mxCell id="69iihYabdfvsN68exh8L-1" style="edgeStyle=none;html=1;endArrow=none;endFill=0;exitX=0.008;exitY=0.386;exitDx=0;exitDy=0;exitPerimeter=0;entryX=0.003;entryY=0.232;entryDx=0;entryDy=0;entryPerimeter=0;" parent="1" source="ZNzW28Jg4eOqkjXqQZsP-17" target="ZNzW28Jg4eOqkjXqQZsP-2" edge="1">
                    <mxGeometry relative="1" as="geometry">
                        <mxPoint x="120" y="350" as="sourcePoint"/>
                        <mxPoint x="470" y="135" as="targetPoint"/>
                        <Array as="points">
                            <mxPoint x="120" y="367"/>
                            <mxPoint x="120" y="127"/>
                        </Array>
                    </mxGeometry>
                </mxCell>
                <mxCell id="69iihYabdfvsN68exh8L-5" style="edgeStyle=none;html=1;entryX=-0.003;entryY=0.661;entryDx=0;entryDy=0;entryPerimeter=0;endArrow=none;endFill=0;" parent="1" source="69iihYabdfvsN68exh8L-3" target="ZNzW28Jg4eOqkjXqQZsP-2" edge="1">
                    <mxGeometry relative="1" as="geometry">
                        <Array as="points">
                            <mxPoint x="340" y="370"/>
                            <mxPoint x="340" y="136"/>
                        </Array>
                    </mxGeometry>
                </mxCell>
                <mxCell id="69iihYabdfvsN68exh8L-11" style="edgeStyle=none;html=1;entryX=1.004;entryY=0.746;entryDx=0;entryDy=0;entryPerimeter=0;endArrow=none;endFill=0;exitX=1.006;exitY=0.671;exitDx=0;exitDy=0;exitPerimeter=0;" parent="1" source="ZNzW28Jg4eOqkjXqQZsP-7" target="ZNzW28Jg4eOqkjXqQZsP-2" edge="1">
                    <mxGeometry relative="1" as="geometry">
                        <Array as="points">
                            <mxPoint x="810" y="373"/>
                            <mxPoint x="810" y="137"/>
                        </Array>
                    </mxGeometry>
                </mxCell>
                <mxCell id="69iihYabdfvsN68exh8L-12" value="EntwicklerProfil" style="swimlane;fontStyle=0;childLayout=stackLayout;horizontal=1;startSize=30;horizontalStack=0;resizeParent=1;resizeParentMax=0;resizeLast=0;collapsible=1;marginBottom=0;" parent="1" vertex="1">
                    <mxGeometry x="-173" y="290" width="173" height="150" as="geometry"/>
                </mxCell>
                <mxCell id="69iihYabdfvsN68exh8L-14" value="&lt;u&gt;id: uuid&lt;/u&gt;" style="text;html=1;align=center;verticalAlign=middle;resizable=0;points=[];autosize=1;strokeColor=none;fillColor=none;" parent="69iihYabdfvsN68exh8L-12" vertex="1">
                    <mxGeometry y="30" width="173" height="20" as="geometry"/>
                </mxCell>
                <mxCell id="69iihYabdfvsN68exh8L-13" value="&lt;u&gt;entwickler_id: uuid&lt;/u&gt;" style="text;html=1;align=center;verticalAlign=middle;resizable=0;points=[];autosize=1;strokeColor=none;fillColor=none;" parent="69iihYabdfvsN68exh8L-12" vertex="1">
                    <mxGeometry y="50" width="173" height="20" as="geometry"/>
                </mxCell>
                <mxCell id="69iihYabdfvsN68exh8L-18" value="image: int" style="text;html=1;align=center;verticalAlign=middle;resizable=0;points=[];autosize=1;strokeColor=none;fillColor=none;" parent="69iihYabdfvsN68exh8L-12" vertex="1">
                    <mxGeometry y="70" width="173" height="20" as="geometry"/>
                </mxCell>
                <mxCell id="69iihYabdfvsN68exh8L-19" value="phone: varchar not null" style="text;html=1;align=center;verticalAlign=middle;resizable=0;points=[];autosize=1;strokeColor=none;fillColor=none;" parent="69iihYabdfvsN68exh8L-12" vertex="1">
                    <mxGeometry y="90" width="173" height="20" as="geometry"/>
                </mxCell>
                <mxCell id="vwDLV6J3Y-UPgL0lfsaE-1" value="kundenprojekt: uuid" style="text;html=1;align=center;verticalAlign=middle;resizable=0;points=[];autosize=1;strokeColor=none;fillColor=none;" parent="69iihYabdfvsN68exh8L-12" vertex="1">
                    <mxGeometry y="110" width="173" height="20" as="geometry"/>
                </mxCell>
                <mxCell id="vwDLV6J3Y-UPgL0lfsaE-2" value="skills: varchar" style="text;html=1;align=center;verticalAlign=middle;resizable=0;points=[];autosize=1;strokeColor=none;fillColor=none;" parent="69iihYabdfvsN68exh8L-12" vertex="1">
                    <mxGeometry y="130" width="173" height="20" as="geometry"/>
                </mxCell>
                <mxCell id="69iihYabdfvsN68exh8L-17" style="edgeStyle=none;html=1;entryX=1.015;entryY=0.475;entryDx=0;entryDy=0;entryPerimeter=0;endArrow=none;endFill=0;" parent="1" source="ZNzW28Jg4eOqkjXqQZsP-21" target="69iihYabdfvsN68exh8L-13" edge="1">
                    <mxGeometry relative="1" as="geometry"/>
                </mxCell>
                <mxCell id="69iihYabdfvsN68exh8L-20" value="&lt;br&gt;&lt;span style=&quot;color: rgba(0 , 0 , 0 , 0) ; font-family: monospace ; font-size: 0px&quot;&gt;3CmxGraphModel%3E%3Croot%3E%3CmxCell%20id%3D%220%22%2F%3E%3CmxCell%20id%3D%221%22%20parent%3D%220%22%2F%3E%3CmxCell%20id%3D%222%22%20value%3D%22%26lt%3Bu%26gt%3Buser_id%3A%20uuid%26lt%3B%2Fu%26gt%3B%22%20style%3D%22text%3Bhtml%3D1%3Balign%3Dcenter%3BverticalAlign%3Dmiddle%3Bresizable%3D0%3Bpoints%3D%5B%5D%3Bautosize%3D1%3BstrokeColor%3Dnone%3BfillColor%3Dnone%3B%22%20vertex%3D%221%22%20parent%3D%221%22%3E%3CmxGeometry%20x%3D%22360%22%20y%3D%22130%22%20width%3D%22140%22%20height%3D%2220%22%20as%3D%22geometry%22%2F%3E%3C%2FmxCell%3E%3C%2Froot%3E%3C%2FmxGraphModel%3E&amp;nbsp;&lt;/span&gt;" style="text;html=1;align=center;verticalAlign=middle;resizable=0;points=[];autosize=1;strokeColor=none;fillColor=none;" parent="1" vertex="1">
                    <mxGeometry x="567" y="260" width="20" height="40" as="geometry"/>
                </mxCell>
                <mxCell id="NWV5yP2Cf28l3QqIXCKS-1" value="Kundenprojekt" style="swimlane;fontStyle=0;childLayout=stackLayout;horizontal=1;startSize=30;horizontalStack=0;resizeParent=1;resizeParentMax=0;resizeLast=0;collapsible=1;marginBottom=0;" parent="1" vertex="1">
                    <mxGeometry x="-180" y="30" width="173" height="90" as="geometry"/>
                </mxCell>
                <mxCell id="NWV5yP2Cf28l3QqIXCKS-2" value="&lt;u&gt;id: uuid&lt;/u&gt;" style="text;html=1;align=center;verticalAlign=middle;resizable=0;points=[];autosize=1;strokeColor=none;fillColor=none;" parent="NWV5yP2Cf28l3QqIXCKS-1" vertex="1">
                    <mxGeometry y="30" width="173" height="20" as="geometry"/>
                </mxCell>
                <mxCell id="NWV5yP2Cf28l3QqIXCKS-6" value="&lt;u&gt;manager_id: uuid&lt;/u&gt;" style="text;html=1;align=center;verticalAlign=middle;resizable=0;points=[];autosize=1;strokeColor=none;fillColor=none;" parent="NWV5yP2Cf28l3QqIXCKS-1" vertex="1">
                    <mxGeometry y="50" width="173" height="20" as="geometry"/>
                </mxCell>
                <mxCell id="NWV5yP2Cf28l3QqIXCKS-9" value="public_projekt: bool not null" style="text;html=1;align=center;verticalAlign=middle;resizable=0;points=[];autosize=1;strokeColor=none;fillColor=none;" parent="NWV5yP2Cf28l3QqIXCKS-1" vertex="1">
                    <mxGeometry y="70" width="173" height="20" as="geometry"/>
                </mxCell>
                <mxCell id="NWV5yP2Cf28l3QqIXCKS-7" style="edgeStyle=none;html=1;entryX=1.007;entryY=0.614;entryDx=0;entryDy=0;entryPerimeter=0;endArrow=none;endFill=0;" parent="1" source="NWV5yP2Cf28l3QqIXCKS-6" target="ZNzW28Jg4eOqkjXqQZsP-12" edge="1">
                    <mxGeometry relative="1" as="geometry">
                        <Array as="points">
                            <mxPoint x="-220" y="90"/>
                            <mxPoint x="-220" y="510"/>
                            <mxPoint x="560" y="510"/>
                            <mxPoint x="560" y="352"/>
                        </Array>
                    </mxGeometry>
                </mxCell>
                <mxCell id="NWV5yP2Cf28l3QqIXCKS-8" style="edgeStyle=none;html=1;entryX=-0.008;entryY=0.614;entryDx=0;entryDy=0;entryPerimeter=0;endArrow=none;endFill=0;" parent="1" source="vwDLV6J3Y-UPgL0lfsaE-1" target="NWV5yP2Cf28l3QqIXCKS-2" edge="1">
                    <mxGeometry relative="1" as="geometry">
                        <Array as="points">
                            <mxPoint x="-240" y="410"/>
                            <mxPoint x="-240" y="72"/>
                        </Array>
                    </mxGeometry>
                </mxCell>
                <mxCell id="uppdGiGxqIYaFg7uusnY-2" value="Anfrage" style="swimlane;fontStyle=0;childLayout=stackLayout;horizontal=1;startSize=30;horizontalStack=0;resizeParent=1;resizeParentMax=0;resizeLast=0;collapsible=1;marginBottom=0;" parent="1" vertex="1">
                    <mxGeometry x="90" y="550" width="173" height="150" as="geometry"/>
                </mxCell>
                <mxCell id="uppdGiGxqIYaFg7uusnY-3" value="&lt;u&gt;id: uuid&lt;/u&gt;" style="text;html=1;align=center;verticalAlign=middle;resizable=0;points=[];autosize=1;strokeColor=none;fillColor=none;" parent="uppdGiGxqIYaFg7uusnY-2" vertex="1">
                    <mxGeometry y="30" width="173" height="20" as="geometry"/>
                </mxCell>
                <mxCell id="BZCiUV9KB7guWdXE19OT-2" value="&lt;u&gt;reviewer_id: uuid&lt;/u&gt;" style="text;html=1;align=center;verticalAlign=middle;resizable=0;points=[];autosize=1;strokeColor=none;fillColor=none;" parent="uppdGiGxqIYaFg7uusnY-2" vertex="1">
                    <mxGeometry y="50" width="173" height="20" as="geometry"/>
                </mxCell>
                <mxCell id="BZCiUV9KB7guWdXE19OT-3" value="&lt;u&gt;entwickler_profil_id: uuid&lt;/u&gt;" style="text;html=1;align=center;verticalAlign=middle;resizable=0;points=[];autosize=1;strokeColor=none;fillColor=none;" parent="uppdGiGxqIYaFg7uusnY-2" vertex="1">
                    <mxGeometry y="70" width="173" height="20" as="geometry"/>
                </mxCell>
                <mxCell id="BZCiUV9KB7guWdXE19OT-1" value="&lt;u&gt;kundenprojekt_id: uuid&lt;/u&gt;" style="text;html=1;align=center;verticalAlign=middle;resizable=0;points=[];autosize=1;strokeColor=none;fillColor=none;" parent="uppdGiGxqIYaFg7uusnY-2" vertex="1">
                    <mxGeometry y="90" width="173" height="20" as="geometry"/>
                </mxCell>
                <mxCell id="BZCiUV9KB7guWdXE19OT-7" value="reason: varchar" style="text;html=1;align=center;verticalAlign=middle;resizable=0;points=[];autosize=1;strokeColor=none;fillColor=none;" parent="uppdGiGxqIYaFg7uusnY-2" vertex="1">
                    <mxGeometry y="110" width="173" height="20" as="geometry"/>
                </mxCell>
                <mxCell id="oLmLCChoCmUz_AQdamga-1" value="accepted: bool" style="text;html=1;align=center;verticalAlign=middle;resizable=0;points=[];autosize=1;strokeColor=none;fillColor=none;" parent="uppdGiGxqIYaFg7uusnY-2" vertex="1">
                    <mxGeometry y="130" width="173" height="20" as="geometry"/>
                </mxCell>
                <mxCell id="BZCiUV9KB7guWdXE19OT-4" style="edgeStyle=none;html=1;entryX=1.006;entryY=0.517;entryDx=0;entryDy=0;entryPerimeter=0;endArrow=none;endFill=0;" parent="1" source="BZCiUV9KB7guWdXE19OT-3" target="69iihYabdfvsN68exh8L-14" edge="1">
                    <mxGeometry relative="1" as="geometry">
                        <Array as="points">
                            <mxPoint x="40" y="630"/>
                            <mxPoint x="40" y="330"/>
                        </Array>
                    </mxGeometry>
                </mxCell>
                <mxCell id="BZCiUV9KB7guWdXE19OT-5" style="edgeStyle=none;html=1;entryX=1.017;entryY=0.6;entryDx=0;entryDy=0;entryPerimeter=0;endArrow=none;endFill=0;" parent="1" source="BZCiUV9KB7guWdXE19OT-1" target="NWV5yP2Cf28l3QqIXCKS-2" edge="1">
                    <mxGeometry relative="1" as="geometry">
                        <Array as="points">
                            <mxPoint x="60" y="650"/>
                            <mxPoint x="60" y="72"/>
                        </Array>
                    </mxGeometry>
                </mxCell>
                <mxCell id="BZCiUV9KB7guWdXE19OT-6" style="edgeStyle=none;html=1;entryX=-0.005;entryY=0.475;entryDx=0;entryDy=0;entryPerimeter=0;endArrow=none;endFill=0;" parent="1" source="BZCiUV9KB7guWdXE19OT-2" target="69iihYabdfvsN68exh8L-10" edge="1">
                    <mxGeometry relative="1" as="geometry">
                        <Array as="points">
                            <mxPoint x="600" y="610"/>
                            <mxPoint x="600" y="350"/>
                        </Array>
                    </mxGeometry>
                </mxCell>
            </root>
        </mxGraphModel>
    </diagram>
</mxfile>